<svg focusable="false" aria-hidden="true" viewBox="0 0 24 24" tabindex="-1" title="Instagram">
<path d="M12,5.8c-3.4,0-6.2,2.7-6.2,6.2s2.7,6.2,6.2,6.2s6.2-2.7,6.2-6.2S15.4,5.8,12,5.8z M12,16c-2.2,0-4-1.8-4-4s1.8-4,4-4
	s4,1.8,4,4S14.2,16,12,16L12,16z M19.8,5.6c0,0.8-0.6,1.4-1.4,1.4C17.6,7,17,6.4,17,5.6s0.6-1.4,1.4-1.4C19.2,4.2,19.8,4.8,19.8,5.6
	z M23.9,7.1c-0.1-1.9-0.5-3.6-1.9-5c-1.4-1.4-3.1-1.8-5-1.9C15,0,9,0,7.1,0.1C5.1,0.2,3.4,0.6,2,2S0.2,5.1,0.1,7C0,9,0,15,0.1,16.9
	c0.1,1.9,0.5,3.6,1.9,5c1.4,1.4,3.1,1.8,5,1.9c2,0.1,7.9,0.1,9.9,0c1.9-0.1,3.6-0.5,5-1.9c1.4-1.4,1.8-3.1,1.9-5
	C24,15,24,9,23.9,7.1L23.9,7.1z M21.4,19.1c-0.4,1-1.2,1.9-2.3,2.3c-1.6,0.6-5.3,0.5-7.1,0.5S6.5,22,4.9,21.4
	c-1-0.4-1.9-1.2-2.3-2.3C2,17.5,2.2,13.7,2.2,12S2,6.5,2.6,4.9c0.4-1,1.2-1.9,2.3-2.3C6.5,2,10.3,2.2,12,2.2s5.5-0.1,7.1,0.5
	c1,0.4,1.9,1.2,2.3,2.3c0.6,1.6,0.5,5.3,0.5,7.1S22,17.5,21.4,19.1z"/>
</svg>
