<svg focusable="false" aria-hidden="true" viewBox="0 0 24 24" tabindex="-1" title="LanguageOutline">
<path d="M12,3c-5,0-9,4-9,9s4,9,9,9c5,0,9-4,9-9S17,3,12,3z M18.2,8.4h-2.7c-0.3-1.1-0.7-2.2-1.2-3.2C16,5.8,17.4,6.9,18.2,8.4z
	 M12,4.8c0.7,1.1,1.3,2.3,1.7,3.6h-3.4C10.7,7.1,11.3,5.9,12,4.8z M5,13.8c-0.1-0.6-0.2-1.2-0.2-1.8s0.1-1.2,0.2-1.8h3
	C8,10.8,8,11.4,8,12s0.1,1.2,0.1,1.8H5z M5.8,15.6h2.7c0.3,1.1,0.7,2.2,1.2,3.2C8,18.2,6.6,17.1,5.8,15.6z M8.4,8.4H5.8
	C6.6,6.9,8,5.8,9.7,5.2C9.1,6.2,8.7,7.3,8.4,8.4z M12,19.2c-0.7-1.1-1.3-2.3-1.7-3.6h3.4C13.3,16.9,12.7,18.1,12,19.2z M14.1,13.8
	H9.9c-0.1-0.6-0.1-1.2-0.1-1.8s0.1-1.2,0.1-1.8h4.2c0.1,0.6,0.1,1.2,0.1,1.8S14.2,13.2,14.1,13.8z M14.3,18.8c0.5-1,1-2.1,1.2-3.2
	h2.7C17.4,17.1,16,18.2,14.3,18.8z M15.9,13.8C16,13.2,16,12.6,16,12s-0.1-1.2-0.1-1.8h3c0.1,0.6,0.2,1.2,0.2,1.8s-0.1,1.2-0.2,1.8
	H15.9z"/>
</svg>
