<svg xmlns="http://www.w3.org/2000/svg" viewBox="0 0 100 130"><path d="M84.11 46.19H100v16.06H84.11zM44.42 96.17c-2.01-1.34-4.04-2.31-6.08-2.92-2.04-.61-3.64-1.03-4.79-1.26-3.85-.99-6.97-1.8-9.36-2.44-2.39-.64-4.26-1.28-5.61-1.92-1.35-.64-2.26-1.34-2.72-2.09-.46-.76-.69-1.74-.69-2.96 0-1.34.29-2.44.86-3.31.57-.87 1.31-1.6 2.2-2.18a8.64 8.64 0 012.98-1.22c1.09-.23 2.18-.35 3.28-.35 1.67 0 3.2.15 4.61.43 1.41.29 2.66.79 3.75 1.48 1.09.7 1.97 1.66 2.63 2.88.66 1.22 1.05 2.76 1.17 4.62h13.11c0-3.6-.68-6.67-2.03-9.2-1.35-2.53-3.18-4.6-5.48-6.23-2.3-1.63-4.93-2.8-7.89-3.53s-6.05-1.09-9.27-1.09c-2.76 0-5.52.38-8.28 1.13s-5.23 1.92-7.42 3.49c-2.18 1.57-3.95 3.53-5.3 5.88s-2.03 5.13-2.03 8.33c0 2.85.53 5.27 1.6 7.28 1.06 2.01 2.46 3.68 4.18 5.02 1.72 1.33 3.68 2.43 5.86 3.27 2.18.84 4.43 1.56 6.73 2.14 2.24.64 4.45 1.22 6.64 1.74 2.18.53 4.14 1.13 5.86 1.83 1.73.7 3.12 1.57 4.18 2.62 1.06 1.05 1.6 2.41 1.6 4.1 0 1.57-.4 2.86-1.21 3.88a8.47 8.47 0 01-3.02 2.4c-1.21.58-2.5.97-3.88 1.18-1.38.21-2.67.31-3.88.31-1.78 0-3.51-.22-5.17-.65-1.67-.44-3.12-1.11-4.35-2.01-1.24-.9-2.23-2.08-2.98-3.53-.75-1.45-1.12-3.23-1.12-5.32H0c-.06 3.84.63 7.15 2.07 9.94 1.44 2.79 3.38 5.09 5.82 6.89 2.44 1.8 5.26 3.13 8.45 3.97 3.19.84 6.48 1.26 9.87 1.26 4.19 0 7.89-.49 11.08-1.48 3.19-.99 5.86-2.37 8.02-4.14 2.16-1.77 3.78-3.88 4.87-6.32 1.09-2.44 1.64-5.08 1.64-7.93 0-3.49-.73-6.35-2.2-8.59-1.45-2.27-3.19-4.06-5.2-5.4zM62.56 0H76.1v62.25H62.56zM100 77.87V66.36H56.27v62.25h43.69V117.1H69.81v-15.26h28.36V91.21H69.81V77.87zM54.07 55.1c-.14-1.4-.24-2.76-.3-4.1-.06-1.34-.12-2.5-.17-3.49-.12-1.57-.33-3.14-.65-4.71-.32-1.57-.82-3.01-1.51-4.32-.69-1.31-1.58-2.44-2.67-3.4-1.09-.96-2.47-1.67-4.14-2.13v-.18c3.45-1.39 5.93-3.43 7.46-6.1 1.52-2.67 2.29-5.84 2.29-9.5 0-2.38-.42-4.61-1.25-6.67-.83-2.06-2.04-3.88-3.62-5.45-1.58-1.57-3.48-2.81-5.69-3.71C41.59.45 39.11 0 36.35 0H3.15v62.24h13.54V37.92h13.54c3.39 0 5.83.76 7.33 2.27 1.49 1.51 2.47 3.89 2.93 7.15.34 2.5.6 5.11.78 7.85.17 2.73.63 5.09 1.38 7.06h13.54c-.63-.87-1.11-1.93-1.42-3.18-.33-1.26-.56-2.58-.7-3.97zM38.5 26.07c-1.55 1.39-3.88 2.09-6.99 2.09H16.69V10.64h14.83c3.1 0 5.43.68 6.99 2.05 1.55 1.37 2.33 3.56 2.33 6.58-.01 3.13-.79 5.4-2.34 6.8z"/></svg>