<svg focusable="false" aria-hidden="true" viewBox="0 0 24 24" tabindex="-1" title="SearchOutlined">
<path d="M16.9,15H16c1.2-1.4,1.8-3.3,1.7-5.1c-0.1-1.9-1-3.6-2.4-4.9C13.8,3.6,12,3,10.1,3S6.5,3.8,5.2,5.2S3,8.3,3,10.1
	s0.6,3.7,1.9,5.1s3,2.2,4.9,2.4c1.9,0.1,3.7-0.4,5.1-1.7v0.9l4.1,4.1l1.9-1.9L16.9,15z M10.3,14.8c-0.9,0-1.8-0.3-2.4-0.8
	c-0.8-0.5-1.3-1.2-1.7-2.1C5.8,11.2,5.8,10.3,6,9.4c0.1-0.9,0.6-1.7,1.3-2.3s1.4-1,2.3-1.3c0.9-0.1,1.8-0.1,2.6,0.3
	c0.8,0.4,1.5,0.9,2.1,1.7c0.5,0.8,0.8,1.7,0.8,2.4c0,1.2-0.5,2.3-1.3,3.2C12.6,14.3,11.5,14.8,10.3,14.8L10.3,14.8z"/>
</svg>
