<svg focusable="false" aria-hidden="true" viewBox="0 0 24 24" tabindex="-1" title="twitter">
<path class="st0" d="M24,4.38c-0.67,1.01-1.51,1.89-2.47,2.61c0.02,0.22,0.02,0.44,0.02,0.66c0,6.67-4.95,14.36-14,14.36
	C4.77,22,2.18,21.17,0,19.73c0.4,0.05,0.78,0.06,1.19,0.06c2.3,0,4.42-0.8,6.11-2.16c-1.03-0.02-2.02-0.37-2.85-0.99
	c-0.82-0.63-1.44-1.5-1.75-2.51c0.31,0.05,0.61,0.08,0.93,0.08c0.44,0,0.88-0.06,1.29-0.17c-1.11-0.23-2.12-0.85-2.83-1.75
	c-0.72-0.9-1.11-2.03-1.11-3.2V9.03C1.66,9.42,2.42,9.64,3.2,9.67C2.52,9.21,1.97,8.59,1.59,7.85C1.2,7.12,1,6.3,1,5.47
	c0-0.94,0.24-1.8,0.67-2.55C2.91,4.48,4.45,5.76,6.2,6.67C7.95,7.58,9.86,8.1,11.82,8.2c-0.08-0.38-0.12-0.77-0.12-1.16
	c0-0.66,0.13-1.32,0.37-1.93c0.25-0.61,0.61-1.17,1.07-1.64c0.46-0.47,1-0.84,1.6-1.09C15.33,2.13,15.97,2,16.62,2
	c0.67,0,1.34,0.14,1.96,0.41c0.62,0.27,1.17,0.68,1.63,1.18c1.1-0.22,2.16-0.63,3.12-1.22c-0.37,1.17-1.14,2.16-2.16,2.78
	C22.16,5.05,23.12,4.77,24,4.38L24,4.38z"/>
</svg>
